<svg width="17" height="16" viewBox="0 0 17 16" fill="none" xmlns="http://www.w3.org/2000/svg">
<path d="M3.21328 6.70598L3.04525 6.86413L3.15499 7.06712C4.54628 9.64055 6.78548 11.7465 9.5132 13.0528L9.69865 13.1416L9.84839 13.0007L11.9262 11.0451C12.1068 10.8751 12.3616 10.8226 12.597 10.8916C13.683 11.229 14.8456 11.4111 16.0556 11.4111C16.2321 11.4111 16.3981 11.4773 16.5178 11.5899C16.6368 11.702 16.7 11.8499 16.7 12V15.1111C16.7 15.2612 16.6368 15.4092 16.5178 15.5212C16.3981 15.6338 16.2321 15.7 16.0556 15.7C11.8713 15.7 7.86171 14.1354 4.90817 11.3556C1.95525 8.57638 0.3 4.81097 0.3 0.888889C0.3 0.738777 0.363192 0.590846 0.482231 0.478809C0.601886 0.366193 0.767856 0.3 0.944444 0.3H4.25C4.42659 0.3 4.59256 0.366192 4.71221 0.47881C4.83125 0.590846 4.89444 0.738776 4.89444 0.888889C4.89444 2.03338 5.0889 3.1328 5.44887 4.15918C5.51521 4.36019 5.46872 4.58321 5.29106 4.75043L3.21328 6.70598Z" stroke="white" stroke-width="0.6"/>
</svg>
