<svg width="17" height="16" viewBox="0 0 17 16" fill="none" xmlns="http://www.w3.org/2000/svg">
<path d="M12.8959 3.9686C12.7037 4.0926 12.3659 4.33975 11.826 4.75538L4.98933 9.24017L4.98922 9.24001L4.9829 9.24448C4.98179 9.2452 4.97968 9.24654 4.97658 9.24842C4.97474 9.24954 4.97254 9.25085 4.96999 9.25234C4.95634 9.26031 4.93268 9.27328 4.89919 9.28863C4.83227 9.31931 4.726 9.35954 4.5815 9.38857C4.29507 9.44612 3.84674 9.46203 3.24198 9.25677C3.24163 9.25665 3.24128 9.25654 3.24094 9.25642L0.452941 8.28495C0.436999 8.27076 0.41667 8.25112 0.395881 8.22712C0.344931 8.1683 0.309884 8.10506 0.301837 8.04648C0.295903 8.00328 0.29846 7.92642 0.400827 7.8105C0.511849 7.68477 0.735359 7.52106 1.16242 7.34412L1.17577 7.33858L1.18854 7.33179C4.4833 5.57816 8.34929 3.79713 12.1007 2.0689C13.3111 1.51126 14.5096 0.959118 15.6731 0.415167L15.6811 0.411862C15.6897 0.408386 15.7033 0.403025 15.7212 0.396486C15.757 0.383344 15.8091 0.365805 15.8714 0.34925C16.0001 0.315037 16.1533 0.290187 16.2912 0.303768C16.4243 0.316877 16.5189 0.362094 16.5825 0.446745C16.6508 0.537669 16.7229 0.725975 16.6931 1.10734L16.6931 1.10733L16.6928 1.11176C16.6724 1.43662 16.5696 2.17509 16.4308 3.17239L16.4221 3.23504C16.2802 4.25455 16.1052 5.51801 15.952 6.8317L14.9039 14.5957L14.9028 14.6043L14.9021 14.6121L14.9021 14.6123L14.9021 14.6125L14.9021 14.6127L14.9021 14.6129L14.9021 14.6129L14.9015 14.619C14.9013 14.6208 14.9011 14.6228 14.9009 14.6252C14.9003 14.631 14.8994 14.6387 14.8982 14.648C14.8949 14.6743 14.8894 14.7135 14.8804 14.7617C14.8622 14.859 14.8311 14.9884 14.7796 15.1208C14.6721 15.3975 14.5057 15.6173 14.2543 15.6806C14.1244 15.7133 13.9583 15.705 13.7612 15.6534C13.5662 15.6024 13.3605 15.5142 13.1628 15.4095C12.7652 15.199 12.4362 14.9415 12.3447 14.8587L12.3448 14.8586L12.3375 14.8524C12.2931 14.8147 12.1203 14.6866 11.8792 14.508C11.8287 14.4706 11.7753 14.4309 11.7193 14.3895C11.3872 14.1431 10.9502 13.8178 10.4849 13.4634C9.54818 12.75 8.51617 11.9333 7.98668 11.4057L7.98669 11.4057L7.98386 11.4029C7.85545 11.2783 7.74231 11.1131 7.71706 10.9333C7.69454 10.773 7.73343 10.5419 8.02975 10.2482L8.02994 10.2484L8.03858 10.2391L12.6254 5.2922L12.6255 5.29226L12.6303 5.2868C12.7292 5.17476 12.8549 5.04143 12.9815 4.90709C13.0175 4.86891 13.0536 4.83065 13.0891 4.79277C13.2378 4.63433 13.3973 4.46251 13.4674 4.35798C13.4779 4.34236 13.4902 4.32289 13.5013 4.30111C13.5104 4.28324 13.5289 4.24479 13.5372 4.19491C13.5446 4.15068 13.5551 4.01871 13.443 3.91472C13.3418 3.82088 13.2238 3.83056 13.1921 3.83421C13.1187 3.84265 13.055 3.87587 13.0283 3.88981C12.9893 3.91026 12.9448 3.93712 12.8959 3.9686Z" stroke="white" stroke-width="0.6"/>
</svg>
