<?xml version="1.0" encoding="UTF-8"?>
<svg id="_Слой_2" data-name="Слой 2" xmlns="http://www.w3.org/2000/svg" viewBox="0 0 598.33 221.2">
  <defs>
    <style>
      .cls-1 {
        fill: #ffffff;
      }
    </style>
  </defs>
  <g id="_Слой_1-2" data-name="Слой 1">
    <g>
      <g>
        <path class="cls-1" d="M55.31,82H10.2v83.01H1.17V74.78h63.16v90.23h-9.02V82Z"/>
        <path class="cls-1" d="M81.11,74.78h9.09c8.35,0,14.65,2.11,18.88,6.32,4.23,4.19,6.35,9.66,6.35,16.42,0,6.08-2.13,11.34-6.39,15.76-4.28,4.42-10.24,6.63-17.87,6.63h-1.04v45.12h-9.02V74.78Zm9.06,37.9h1.08c5.37,0,9.23-1.7,11.59-5.1,2.36-3.42,3.54-6.78,3.54-10.06,0-3.86-1.18-7.39-3.54-10.58-2.36-3.19-6.58-4.84-12.67-4.93v30.68Z"/>
        <path class="cls-1" d="M124.63,119.9c0-13.23,4.51-24.25,13.54-33.04,9-8.79,20.12-13.19,33.35-13.19s24.36,4.4,33.39,13.19c9,8.79,13.5,19.81,13.5,33.04s-4.54,24.27-13.6,33.11c-9.07,8.86-20.16,13.29-33.28,13.29s-24.19-4.43-33.28-13.29c-9.07-8.84-13.6-19.87-13.6-33.11Zm46.89,39.18c10.55,0,19.5-3.83,26.86-11.49,7.36-7.63,11.04-16.87,11.04-27.69s-3.64-20.04-10.93-27.63c-7.29-7.61-16.28-11.42-26.97-11.42s-19.64,3.81-26.93,11.42c-7.29,7.59-10.93,16.8-10.93,27.63s3.67,20.06,11,27.69c7.36,7.66,16.31,11.49,26.86,11.49Z"/>
        <path class="cls-1" d="M253.6,116.29h-5.41c-5.71,24.36-9.52,40.6-11.42,48.73h-10.24c7.06-25.59,11.76-42.65,14.12-51.19v-1.11c-6.2-18.97-10.33-31.62-12.39-37.93h9.09l10.83,34.29h5.41v-34.29h9.06c-.02,17.14-.04,28.57-.04,34.29h5.41l10.83-34.29h9.09c-5.92,18.97-9.88,31.62-11.87,37.93v1.11c7.06,25.59,11.77,42.65,14.12,51.19h-9.79c-6.15-24.36-10.25-40.6-12.29-48.73h-5.52v48.73h-9.02v-48.73Z"/>
        <path class="cls-1" d="M302.85,74.78h32.48v7.22h-23.46v16.24h18.05v7.22h-18.05v52.33h23.46v7.22h-32.48V74.78Z"/>
        <path class="cls-1" d="M350.23,74.78h9.13c-.05,17.14-.08,28.57-.1,34.29h3.61c6.27-17.14,10.46-28.57,12.56-34.29h9.09c-6.76,18.62-11.27,31.04-13.53,37.24v1.11c7.66,25.94,12.77,43.23,15.34,51.88h-9.02c-7.22-24.36-12.03-40.6-14.44-48.73h-3.61c0,24.11,.02,37.88,.07,41.3,.05,3.42,.07,5.9,.07,7.43h-9.09c-.05-45.12-.07-75.19-.07-90.23Z"/>
        <path class="cls-1" d="M408.57,82.07h-14.44v-7.18c11.94-.05,19.89-.08,23.84-.1,7.01,.05,11.68,.08,14.02,.1v7.18c-7.17,.07-11.96,.1-14.37,.1,.02,41.46,.05,69.1,.07,82.91-4.56-.02-7.6-.05-9.13-.07V82.07Z"/>
        <path class="cls-1" d="M457.84,119.9c0-13.23,4.51-24.25,13.54-33.04,9-8.79,20.12-13.19,33.35-13.19s24.36,4.4,33.39,13.19c9,8.79,13.5,19.81,13.5,33.04s-4.54,24.27-13.6,33.11c-9.07,8.86-20.16,13.29-33.28,13.29s-24.19-4.43-33.28-13.29c-9.07-8.84-13.6-19.87-13.6-33.11Zm46.89,39.18c10.55,0,19.5-3.83,26.86-11.49,7.36-7.63,11.04-16.87,11.04-27.69s-3.64-20.04-10.93-27.63c-7.29-7.61-16.28-11.42-26.97-11.42s-19.64,3.81-26.93,11.42c-7.29,7.59-10.93,16.8-10.93,27.63s3.67,20.06,11,27.69c7.36,7.66,16.31,11.49,26.86,11.49Z"/>
        <path class="cls-1" d="M563.35,74.78h9.09c8.35,0,14.65,2.11,18.88,6.32,4.23,4.19,6.35,9.66,6.35,16.42,0,6.08-2.13,11.34-6.39,15.76-4.28,4.42-10.24,6.63-17.87,6.63h-1.04v45.12h-9.02V74.78Zm9.06,37.9h1.08c5.37,0,9.23-1.7,11.59-5.1,2.36-3.42,3.54-6.78,3.54-10.06,0-3.86-1.18-7.39-3.54-10.58-2.36-3.19-6.58-4.84-12.67-4.93v30.68Z"/>
      </g>
      <g>
        <path class="cls-1" d="M13.44,186.37c3.86,0,7.03,1.34,9.59,3.97s3.86,5.92,3.86,9.85-1.3,7.26-3.86,9.89-5.73,3.93-9.59,3.93-7.07-1.3-9.62-3.93-3.82-5.96-3.82-9.89,1.26-7.22,3.82-9.85,5.77-3.97,9.62-3.97Zm0,25.02c2.98,0,5.5-1.07,7.52-3.21,2.02-2.14,3.06-4.81,3.06-7.98s-1.03-5.84-3.06-7.98c-2.02-2.14-4.54-3.21-7.52-3.21s-5.5,1.07-7.52,3.21c-2.02,2.14-3.06,4.81-3.06,7.98s1.03,5.84,3.06,7.98c2.02,2.14,4.54,3.21,7.52,3.21Z"/>
        <path class="cls-1" d="M35.59,221.2h-2.75v-26.09h2.75v2.94c1.72-2.25,4.09-3.4,7.14-3.4,2.71,0,4.96,.95,6.68,2.83s2.6,4.16,2.6,6.84-.88,5-2.6,6.87c-1.72,1.87-3.97,2.83-6.68,2.83-3.06,0-5.42-1.15-7.14-3.4v10.58Zm0-13.83c1.07,2.44,3.7,4.16,6.49,4.16,2.02,0,3.74-.69,5.08-2.06,1.34-1.41,2.02-3.13,2.02-5.16s-.69-3.74-2.02-5.12-3.06-2.06-5.08-2.06c-2.79,0-5.38,1.76-6.49,4.16v6.07Z"/>
        <path class="cls-1" d="M57.12,213.56v-18.45h13.86v2.41h-11.11v16.04h-2.75Z"/>
        <path class="cls-1" d="M75.11,212.42c-1.34-1.11-2.02-2.6-2.02-4.51s.73-3.36,2.14-4.47c1.45-1.11,3.25-1.64,5.42-1.64,2.41,0,4.62,.61,6.65,1.79v-1.83c0-3.09-2.02-4.62-6.07-4.62-2.18,0-4.16,.61-6.03,1.87v-2.67c1.8-1.11,3.97-1.68,6.61-1.68,4.93,0,8.25,2.37,8.25,6.84v7.6c0,1.41,.69,2.29,1.76,2.29,.42,0,.76-.08,1.07-.23v2.14c-.38,.27-.99,.42-1.83,.42-1.8,0-3.17-.96-3.48-2.94-1.87,2.18-4.35,3.25-7.45,3.25-1.95,0-3.63-.53-5-1.6Zm12.18-3.97v-2.56c-1.87-1.22-3.9-1.83-6-1.83-3.36,0-5.46,1.41-5.46,3.7,0,2.48,2.18,3.78,5.04,3.78,2.64,0,5.08-1.41,6.42-3.09Z"/>
        <path class="cls-1" d="M97.33,213.56v-18.45h2.75v7.75h11.34v-7.75h2.75v18.45h-2.75v-8.21h-11.34v8.21h-2.75Z"/>
        <path class="cls-1" d="M120.66,213.56v-18.45h2.75v14.4l11.8-14.4h2.56v18.45h-2.75v-14.36l-11.8,14.36h-2.56Z"/>
        <path class="cls-1" d="M143.35,212.76v-2.67c2.02,.96,4.2,1.45,6.46,1.45,3.7,0,6.07-1.22,6.07-3.4,0-1.99-1.95-3.06-5-3.06h-3.21v-2.41h3.21c2.94,0,4.32-1.11,4.32-2.67,0-1.91-1.72-2.86-5.19-2.86-2.06,0-4.09,.42-6.07,1.26v-2.56c1.79-.8,4.01-1.18,6.61-1.18,2.14,0,3.9,.46,5.31,1.34s2.14,2.06,2.14,3.51c-.15,2.64-1.49,3.51-2.98,4.16,2.48,.8,3.74,2.33,3.74,4.66,0,3.4-3.36,5.69-8.59,5.69-2.67,0-4.93-.42-6.8-1.26Z"/>
        <path class="cls-1" d="M164.73,212.42c-1.34-1.11-2.02-2.6-2.02-4.51s.73-3.36,2.14-4.47c1.45-1.11,3.25-1.64,5.42-1.64,2.41,0,4.62,.61,6.65,1.79v-1.83c0-3.09-2.02-4.62-6.07-4.62-2.18,0-4.16,.61-6.03,1.87v-2.67c1.79-1.11,3.97-1.68,6.61-1.68,4.93,0,8.25,2.37,8.25,6.84v7.6c0,1.41,.69,2.29,1.76,2.29,.42,0,.76-.08,1.07-.23v2.14c-.38,.27-.99,.42-1.83,.42-1.8,0-3.17-.96-3.48-2.94-1.87,2.18-4.35,3.25-7.45,3.25-1.95,0-3.63-.53-5-1.6Zm12.18-3.97v-2.56c-1.87-1.22-3.9-1.83-6-1.83-3.36,0-5.46,1.41-5.46,3.7,0,2.48,2.18,3.78,5.04,3.78,2.64,0,5.08-1.41,6.42-3.09Z"/>
        <path class="cls-1" d="M204.18,219.03v-5.46h-17.22v-18.45h2.75v16.04h10.96v-16.04h2.75v16.04h3.4v7.87h-2.64Z"/>
        <path class="cls-1" d="M211.31,213.56v-18.45h2.75v14.4l11.8-14.4h2.56v18.45h-2.75v-14.36l-11.8,14.36h-2.56Z"/>
        <path class="cls-1" d="M233.46,213.56l5.5-7.37c-3.02-.5-4.66-2.52-4.66-5.46,0-3.32,2.33-5.61,6.61-5.61h9.51v18.45h-2.75v-6.87h-5.92l-5.16,6.87h-3.13Zm14.21-9.28v-6.76h-6.34c-2.71,0-4.2,1.22-4.2,3.4s1.49,3.36,4.2,3.36h6.34Z"/>
        <path class="cls-1" d="M264.58,219.03v-7.87h2.33c2.06-2.71,3.09-7.22,3.13-13.44l.04-2.6h13.71v16.04h3.44v7.87h-2.67v-5.46h-17.34v5.46h-2.64Zm16.46-7.87v-13.63h-8.4v1.11c0,5.5-.88,9.66-2.67,12.53h11.08Z"/>
        <path class="cls-1" d="M293.3,211.31c-1.95-1.79-2.9-4.12-2.9-6.95s.88-5.08,2.6-6.91c1.76-1.87,4.01-2.79,6.76-2.79,6.19,0,8.63,5.42,8.63,9.59v.76h-15.16c.31,3.97,3.44,6.53,7.87,6.53,2.14,0,4.12-.57,5.92-1.72v2.44c-1.53,1.18-3.67,1.76-6.45,1.76s-5.31-.92-7.26-2.71Zm12.3-8.56c-.08-1.41-.61-2.71-1.6-3.86-.96-1.18-2.41-1.76-4.35-1.76s-3.36,.57-4.51,1.68c-1.11,1.11-1.76,2.41-1.87,3.93h12.34Z"/>
        <path class="cls-1" d="M310.82,211.04c.19,.04,.42,.04,.73,.04,1.64,0,2.71-1.07,3.28-3.06,.61-2.02,.8-4.01,.92-7.03l.15-5.88h13.79v18.45h-2.75v-16.04h-8.4l-.12,3.55c-.04,1.15-.08,2.14-.15,2.98-.15,1.68-.46,4.01-1.11,5.5-.84,2.22-2.64,4.2-5.54,4.05-.34,0-.61,0-.8-.04v-2.52Z"/>
        <path class="cls-1" d="M344.81,194.66c2.94,0,5.31,.95,7.18,2.86,1.87,1.87,2.79,4.16,2.79,6.84s-.92,4.97-2.79,6.84c-1.87,1.87-4.24,2.83-7.18,2.83s-5.31-.96-7.18-2.83c-1.87-1.87-2.79-4.16-2.79-6.84s.92-4.96,2.79-6.84c1.87-1.91,4.24-2.86,7.18-2.86Zm5.12,4.54c-1.34-1.38-3.06-2.06-5.12-2.06s-3.78,.69-5.12,2.06c-1.34,1.38-2.02,3.09-2.02,5.16s.69,3.74,2.02,5.12c1.34,1.37,3.06,2.06,5.12,2.06s3.78-.69,5.12-2.06c1.34-1.38,2.02-3.09,2.02-5.12s-.69-3.78-2.02-5.16Z"/>
        <path class="cls-1" d="M359.89,213.56v-18.45h9.7c3.55,0,5.58,1.91,5.58,4.7,0,1.99-.76,3.32-2.29,4.05,2.33,.69,3.51,2.25,3.51,4.74,0,3.06-2.21,4.96-6.15,4.96h-10.35Zm2.75-10.62h6.19c2.29,0,3.63-.99,3.63-2.71s-1.34-2.71-3.63-2.71h-6.19v5.42Zm0,8.21h7.03c2.48,0,3.93-1.07,3.93-2.94s-1.45-2.98-3.93-2.98h-7.03v5.92Z"/>
        <path class="cls-1" d="M381.93,213.56v-18.45h2.75v6.19h5.5c4.32,0,7.03,2.41,7.03,6.11s-2.52,6.15-6.91,6.15h-8.36Zm2.75-2.41h5.12c2.9,0,4.62-1.38,4.62-3.7s-1.72-3.74-4.62-3.74h-5.12v7.45Zm15.58,2.41v-18.45h2.75v18.45h-2.75Z"/>
        <path class="cls-1" d="M407.51,213.56l7.75-9.74-6.84-8.71h3.25l5.27,6.57,5.27-6.57h3.21l-6.87,8.63,7.75,9.82h-3.25l-6.15-7.71-6.23,7.71h-3.17Z"/>
        <path class="cls-1" d="M442.41,211.27c-1.87-1.87-2.79-4.16-2.79-6.95s.95-5.04,2.83-6.87c1.87-1.87,4.24-2.79,7.03-2.79,2.14,0,4.01,.46,5.58,1.34v2.56c-1.68-.95-3.4-1.41-5.19-1.41-2.1,0-3.9,.69-5.31,2.06-1.41,1.34-2.1,3.06-2.1,5.16s.69,3.78,2.1,5.16c1.41,1.34,3.21,2.02,5.31,2.02s3.9-.53,5.54-1.6v2.52c-1.72,1.03-3.71,1.57-5.96,1.57-2.79,0-5.16-.92-7.03-2.75Z"/>
        <path class="cls-1" d="M469.22,194.66c2.94,0,5.31,.95,7.18,2.86,1.87,1.87,2.79,4.16,2.79,6.84s-.92,4.97-2.79,6.84c-1.87,1.87-4.24,2.83-7.18,2.83s-5.31-.96-7.18-2.83c-1.87-1.87-2.79-4.16-2.79-6.84s.92-4.96,2.79-6.84c1.87-1.91,4.24-2.86,7.18-2.86Zm5.12,4.54c-1.34-1.38-3.06-2.06-5.12-2.06s-3.78,.69-5.12,2.06c-1.34,1.38-2.02,3.09-2.02,5.16s.69,3.74,2.02,5.12c1.34,1.37,3.06,2.06,5.12,2.06s3.78-.69,5.12-2.06c1.34-1.38,2.02-3.09,2.02-5.12s-.69-3.78-2.02-5.16Z"/>
        <path class="cls-1" d="M485.94,210.74c-1.76-2.18-2.64-5.16-2.64-8.94,0-5.23,1.38-8.52,3.71-10.66,1.03-1.03,2.98-1.95,4.39-2.52,.73-.27,1.64-.57,2.75-.84,1.15-.31,2.14-.53,3.02-.73s2.02-.38,3.4-.65v2.56c-2.64,.5-4.66,.92-6.07,1.26-2.79,.65-4.89,1.68-6.3,3.17-1.41,1.49-2.18,3.74-2.29,6.84,1.53-2.64,4.51-4.28,8.17-4.28,2.41,0,4.43,.8,6.07,2.44,1.64,1.6,2.44,3.67,2.44,6.19,0,2.79-.88,5.04-2.67,6.8-1.79,1.76-3.97,2.64-6.61,2.64-3.17,0-5.61-1.11-7.37-3.28Zm11.95-1.07c1.26-1.26,1.91-2.9,1.91-4.89s-.61-3.44-1.83-4.58c-1.22-1.18-2.71-1.76-4.51-1.76-1.64,0-3.13,.5-4.47,1.49-1.34,.95-2.29,2.1-2.86,3.44,.27,5.16,2.79,8.17,7.18,8.17,1.79,0,3.32-.61,4.58-1.87Z"/>
        <path class="cls-1" d="M507.71,213.56v-18.45h2.75v6.19h5.5c4.32,0,7.03,2.41,7.03,6.11s-2.52,6.15-6.91,6.15h-8.36Zm2.75-2.41h5.12c2.9,0,4.62-1.38,4.62-3.7s-1.72-3.74-4.62-3.74h-5.12v7.45Zm15.58,2.41v-18.45h2.75v18.45h-2.75Z"/>
        <path class="cls-1" d="M539.71,213.56v-16.04h-6.68v-2.41h16.12v2.41h-6.68v16.04h-2.75Z"/>
        <path class="cls-1" d="M553.38,213.56v-18.45h2.75v14.4l11.8-14.4h2.56v18.45h-2.75v-14.36l-11.8,14.36h-2.56Z"/>
        <path class="cls-1" d="M576.97,213.56v-18.45h2.75v14.4l11.8-14.4h2.56v18.45h-2.75v-14.36l-11.8,14.36h-2.56Zm2.33-27.38h2.44c0,2.1,1.49,3.59,3.78,3.59s3.74-1.49,3.78-3.59h2.41c-.04,3.51-2.64,5.81-6.15,5.81-3.71,0-6.23-2.29-6.26-5.81Z"/>
      </g>
      <path class="cls-1" d="M460.69,58.61c-6.03-3.35-9.36-6.68-12.7-12.71-.78-1.41-1.18-3.01-1.18-4.62V0h-1V41.29c0,1.61-.39,3.21-1.18,4.62-3.35,6.02-6.68,9.36-12.71,12.7-1.41,.78-3.01,1.18-4.62,1.18H.83v1H427.3c1.61,0,3.21,.39,4.62,1.18,6.03,3.35,9.36,6.68,12.7,12.71,.78,1.41,1.18,3.01,1.18,4.62v41.28h1v-41.28c0-1.61,.39-3.21,1.18-4.62,3.35-6.02,6.68-9.36,12.7-12.71,1.41-.78,3.01-1.18,4.62-1.18h133.01v-1h-133.02c-1.61,0-3.21-.39-4.62-1.18Z"/>
    </g>
  </g>
</svg>