<svg width="143" height="56" viewBox="0 0 143 56" fill="none" xmlns="http://www.w3.org/2000/svg">
<path d="M7.85935 8.3845C5.23957 8.3845 2.66156 8.3845 0.0358057 8.3845C0.0238705 8.21144 0.00596762 8.06822 0.00596762 7.925C0.00596762 5.4365 0.0179029 2.948 0 0.459507C0 0.107417 0.0895143 0 0.453539 0C6.12278 0.0119352 11.792 0.00596762 17.4553 0.00596762C17.5866 0.00596762 17.7238 0.0179029 17.9029 0.0298381C17.9029 14.8355 17.9029 29.6173 17.9029 44.4588C18.1117 44.4588 18.2669 44.4588 18.428 44.4588C20.821 44.4588 23.214 44.4588 25.6071 44.4588C25.8756 44.4588 26.0308 44.4826 26.0308 44.8228C26.0188 47.3889 26.0248 49.9609 26.0248 52.527C26.0248 52.6046 26.0069 52.6881 25.9949 52.7955C17.3479 52.7955 8.71272 52.7955 0.0358057 52.7955C0.0298381 52.6344 0.0119352 52.4733 0.0119352 52.3181C0.0119352 49.8714 0.0179029 47.4247 0 44.9779C0 44.5781 0.0835467 44.4468 0.513215 44.4528C2.79881 44.4767 5.07844 44.4647 7.36404 44.4647H7.85935C7.85935 32.4221 7.85935 20.4391 7.85935 8.39047V8.3845Z" fill="white"/>
<path d="M22.7187 34.2837C22.7187 30.9777 22.7187 27.6895 22.7187 24.3357C22.9037 24.3357 23.0887 24.3357 23.2677 24.3357C25.0282 24.3417 26.7349 24.0851 28.3223 23.2735C30.3811 22.2172 31.4374 20.4866 31.688 18.2189C31.8134 17.1149 31.7537 16.0169 31.4851 14.9427C30.8943 12.5914 29.295 11.2726 27.0273 10.6579C25.8099 10.3297 24.5687 10.2223 23.3155 10.2402C23.1305 10.2402 22.9395 10.2402 22.7247 10.2402C22.7247 6.9043 22.7247 3.61018 22.7247 0.316051C22.7724 0.298149 22.8082 0.268311 22.844 0.268311C26.8781 0.280246 30.8168 0.805396 34.463 2.65536C39.0103 4.96483 41.6301 8.71846 42.5491 13.6954C43.3189 17.8787 42.7639 21.8771 40.6395 25.5889C38.2882 29.6946 34.6957 32.213 30.1902 33.4841C27.8628 34.1405 24.5567 34.4807 22.7187 34.2897V34.2837Z" fill="white"/>
<path d="M132.219 19.0249C133.376 19.0249 134.462 19.0249 135.626 19.0249C135.626 19.556 135.656 20.0812 135.614 20.6063C135.578 21.036 135.745 21.1315 136.139 21.1374C138.294 21.1911 140.167 21.9132 141.534 23.6319C143.115 25.6311 143.384 27.8928 142.501 30.244C141.635 32.5595 139.827 33.7948 137.434 34.2125C136.957 34.296 136.462 34.3318 135.978 34.3497C135.686 34.3617 135.608 34.4691 135.614 34.7436C135.632 35.221 135.626 35.6925 135.614 36.1699C135.614 36.2713 135.501 36.4563 135.435 36.4563C134.379 36.4742 133.323 36.4683 132.219 36.4683C132.219 35.8596 132.201 35.3105 132.225 34.7555C132.236 34.4512 132.135 34.3617 131.831 34.3497C130.19 34.302 128.65 33.9081 127.349 32.8638C125.236 31.1571 124.467 28.9073 125.034 26.2875C125.618 23.5782 127.421 21.9789 130.076 21.3344C130.583 21.2091 131.121 21.1792 131.646 21.1374C132.207 21.0957 132.207 21.1076 132.207 20.5287C132.207 20.0454 132.207 19.556 132.207 19.0249H132.219ZM132.195 31.5867C132.201 31.4077 132.213 31.2645 132.213 31.1213C132.213 28.8416 132.213 26.562 132.213 24.2824C132.213 24.0795 132.254 23.8646 131.92 23.8825C131.067 23.9303 130.297 24.163 129.67 24.7777C128.041 26.371 128.173 29.4145 129.945 30.8468C130.589 31.3659 131.323 31.6285 132.195 31.5867ZM135.644 31.5927C136.736 31.6225 137.625 31.2526 138.306 30.4529C139.177 29.4324 139.475 28.2389 139.237 26.9141C138.926 25.2074 137.757 24.0854 136.115 23.8885C135.763 23.8467 135.608 23.8945 135.608 24.3182C135.626 26.5978 135.62 28.8834 135.62 31.163C135.62 31.2943 135.632 31.4256 135.644 31.5927Z" fill="white"/>
<path d="M50.7904 16.3035C51.411 16.3035 52.0018 16.3035 52.5986 16.3035C54.4426 16.3154 56.2925 16.2915 58.1365 16.3512C59.1749 16.381 60.1774 16.6615 61.1203 17.0972C63.1075 18.0162 64.1877 19.5976 64.5338 21.74C65.0291 24.8014 63.4358 27.7136 60.5773 28.9071C59.5508 29.3367 58.4707 29.5337 57.3607 29.5575C56.6028 29.5754 55.839 29.5337 55.0811 29.5158C54.8782 29.5158 54.6813 29.5158 54.4426 29.5158C54.4306 29.6888 54.4127 29.85 54.4127 30.0051C54.4127 31.2941 54.4008 32.5891 54.4127 33.8781C54.4127 34.2362 54.3351 34.3853 53.9413 34.3734C53.0342 34.3436 52.1211 34.3674 51.2081 34.3615C51.0768 34.3615 50.9396 34.3495 50.7784 34.3376C50.7784 28.3402 50.7784 22.3725 50.7784 16.3035H50.7904ZM54.4127 22.844C54.4127 23.6019 54.4127 24.3657 54.4127 25.1236C54.4127 25.6965 54.7031 26.0108 55.284 26.0665C55.3496 26.0725 55.4212 26.0904 55.4869 26.0904C56.4596 26.0486 57.4562 26.1202 58.3991 25.9292C60.0282 25.595 60.81 24.3359 60.7205 22.5038C60.6489 21 59.7358 19.9736 58.1425 19.7945C57.0027 19.6692 55.839 19.7348 54.6872 19.7169C54.3888 19.7169 54.4187 19.9198 54.4187 20.1108C54.4187 21.0239 54.4187 21.9309 54.4187 22.844H54.4127Z" fill="white"/>
<path d="M50.7846 52.8254C50.7846 48.4034 50.7846 44.0351 50.7846 39.6131C50.9278 39.6071 51.071 39.5892 51.2143 39.5892C52.0438 39.5892 52.8733 39.6071 53.7028 39.5773C54.1086 39.5653 54.1981 39.7086 54.1921 40.0845C54.1802 43.0862 54.1861 46.0939 54.1861 49.0956C54.1861 49.4537 54.3612 49.6327 54.7113 49.6327C56.1674 49.6327 57.6175 49.6327 59.0736 49.6327C59.2228 49.6327 59.366 49.6327 59.5689 49.6327V44.6259C59.5689 42.9669 59.5689 41.3139 59.5689 39.5832C59.8076 39.5832 60.0165 39.5832 60.2313 39.5832C61.0071 39.5832 61.7829 39.6011 62.5527 39.5773C62.9227 39.5653 63.0063 39.6966 63.0063 40.0428C62.9943 43.0325 63.0003 46.0223 63.0063 49.0121C63.0063 49.7043 62.9287 49.6327 63.6508 49.6387C64.0446 49.6387 64.4385 49.6506 64.8324 49.6387C65.1069 49.6267 65.2203 49.7163 65.2203 50.0087C65.2083 51.8407 65.2083 53.6788 65.2203 55.5108C65.2203 55.7794 65.1248 55.8629 64.8622 55.8629C64.0208 55.851 63.1793 55.851 62.3319 55.8629C62.0634 55.8629 61.9739 55.7734 61.9798 55.5108C61.9918 54.7649 61.9679 54.013 61.9918 53.267C62.0037 52.903 61.8784 52.8135 61.5263 52.8194C58.1128 52.8314 54.7053 52.8254 51.2918 52.8254C51.1426 52.8254 50.9935 52.8254 50.7906 52.8254H50.7846Z" fill="white"/>
<path d="M111.935 55.8569V55.3675C111.935 50.2712 111.935 45.1748 111.929 40.0845C111.929 39.7025 112.012 39.5772 112.418 39.5772C113.952 39.5832 115.485 39.5414 117.025 39.5295C118.487 39.5175 119.931 39.619 121.31 40.1561C123.488 41.0094 124.586 42.6505 124.765 44.9481C124.843 45.9327 124.765 46.9054 124.407 47.8364C123.542 50.0265 121.853 51.22 119.597 51.5721C118.416 51.7571 117.192 51.6736 115.987 51.7094C115.802 51.7094 115.617 51.6915 115.378 51.6855C115.378 52.0555 115.378 52.3957 115.378 52.7298C115.378 53.6429 115.366 54.55 115.378 55.463C115.378 55.7554 115.306 55.8748 114.99 55.8688C113.988 55.8509 112.985 55.8628 111.935 55.8628V55.8569ZM115.39 48.4093C116.679 48.5167 117.932 48.7077 119.185 48.3615C120.128 48.1049 120.838 47.538 121.035 46.5534C121.155 45.9805 121.149 45.3658 121.077 44.781C120.97 43.856 120.397 43.2533 119.52 42.9787C118.165 42.5491 116.78 42.8057 115.39 42.7938C115.39 44.6795 115.39 46.5056 115.39 48.4033V48.4093Z" fill="white"/>
<path d="M70.1315 47.2637C70.3821 48.9943 71.7367 50.1579 73.5449 50.2713C75.0726 50.3668 76.481 50.0326 77.7939 49.0957C78.0445 49.7104 78.2832 50.2952 78.5219 50.88C78.7905 51.5365 78.8084 51.5723 78.1997 51.9184C75.4665 53.4879 72.6438 53.655 69.845 52.1989C67.7444 51.1068 66.7836 49.1912 66.5986 46.8817C66.4852 45.4793 66.6881 44.1128 67.3446 42.8476C68.4187 40.7828 70.1613 39.6669 72.435 39.3446C74.3148 39.0761 76.0692 39.4162 77.591 40.6038C79.2082 41.8689 79.8945 43.5757 79.8587 45.5987C79.8527 46.0164 79.7811 46.4342 79.7572 46.8519C79.7333 47.1741 79.5722 47.2696 79.2559 47.2696C76.3915 47.2577 73.5211 47.2637 70.6566 47.2637C70.4955 47.2637 70.3344 47.2637 70.1434 47.2637H70.1315ZM76.4034 44.9363C76.4989 43.9994 75.9976 42.9968 75.1264 42.5492C73.8135 41.8809 72.4946 41.9405 71.2713 42.776C70.5373 43.2773 70.1792 44.0471 70.024 44.9363C72.1843 44.9363 74.2909 44.9363 76.4034 44.9363Z" fill="white"/>
<path d="M69.1408 28.7758C69.3855 30.1364 70.0837 31.0673 71.325 31.503C73.1212 32.1355 74.828 31.8192 76.4392 30.8764C76.5526 30.8107 76.666 30.7331 76.8271 30.6377C77.1374 31.4015 77.4537 32.1355 77.7282 32.8755C77.7581 32.9591 77.6268 33.162 77.5194 33.2395C76.6362 33.9079 75.6276 34.2958 74.5475 34.5047C73.1511 34.7732 71.7666 34.7553 70.394 34.3734C67.5952 33.5976 65.7453 31.2344 65.608 28.3162C65.5364 26.6871 65.8049 25.1415 66.7239 23.7689C68.2218 21.537 70.4119 20.7075 73.0138 20.8209C75.9917 20.9522 78.2832 22.9215 78.7785 25.8457C78.9158 26.6692 78.7785 27.5464 78.7726 28.3938C78.7726 28.7161 78.5876 28.7817 78.2952 28.7817C75.4128 28.7698 72.5364 28.7817 69.6541 28.7817C69.4989 28.7817 69.3378 28.7817 69.1408 28.7817V28.7758ZM75.4486 26.4484C75.4784 25.237 74.816 24.2046 73.7001 23.8823C73.0795 23.7033 72.3872 23.6675 71.7427 23.7271C70.3463 23.8525 69.1229 25.1474 69.0931 26.4484C71.2056 26.4484 73.3182 26.4484 75.4546 26.4484H75.4486Z" fill="white"/>
<path d="M113.355 28.7758C113.57 30.4049 114.805 31.5567 116.476 31.7596C118.111 31.9625 119.603 31.5925 120.988 30.6496C121.041 30.7451 121.107 30.8286 121.143 30.9241C121.352 31.4254 121.548 31.9267 121.757 32.4339C122.014 33.0605 122.014 33.0665 121.435 33.4425C119.943 34.4032 118.284 34.7613 116.536 34.6539C115.73 34.6061 114.907 34.4689 114.149 34.2123C111.994 33.4842 110.61 31.9804 110.055 29.7783C109.5 27.5703 109.721 25.4399 111.069 23.5541C112.591 21.4237 114.775 20.7016 117.305 20.8269C120.045 20.9642 122.294 22.8201 122.915 25.4638C123.142 26.4245 123.112 27.4032 122.975 28.3759C122.927 28.7042 122.778 28.7817 122.467 28.7817C119.603 28.7698 116.733 28.7758 113.868 28.7758H113.361H113.355ZM119.663 26.4424C119.621 25.41 119.269 24.5626 118.356 24.0852C117.085 23.4169 115.784 23.4765 114.566 24.2404C113.785 24.7357 113.415 25.5234 113.236 26.4365C115.402 26.4365 117.508 26.4365 119.657 26.4365L119.663 26.4424Z" fill="white"/>
<path d="M95.0941 52.8077H91.7284C91.7284 51.1428 91.7284 49.4897 91.7284 47.8009C91.5494 47.789 91.4181 47.777 91.2868 47.777C89.6576 47.777 88.0225 47.783 86.3933 47.7711C86.0532 47.7711 85.9517 47.8725 85.9577 48.2067C85.9756 49.5673 85.9637 50.9279 85.9637 52.2826C85.9637 52.4437 85.9637 52.6048 85.9637 52.7898H82.5979C82.5979 48.4156 82.5979 44.0353 82.5979 39.5835C82.8963 39.5835 83.2066 39.5835 83.511 39.5835C84.1913 39.5835 84.8716 39.5954 85.5519 39.5775C85.8682 39.5656 85.9756 39.6611 85.9696 39.9893C85.9517 41.3499 85.9637 42.7105 85.9696 44.0652C85.9696 44.2143 85.9816 44.3576 85.9875 44.5366C87.8972 44.5366 89.777 44.5366 91.6926 44.5366C91.6985 44.3814 91.7105 44.2382 91.7105 44.089C91.7105 42.7165 91.7164 41.3439 91.7105 39.9714C91.7105 39.667 91.8 39.5715 92.1043 39.5775C92.9995 39.5954 93.9006 39.5894 94.7957 39.5775C95.0106 39.5775 95.1538 39.6014 95.1538 39.8759C95.1478 44.1308 95.1478 48.3857 95.1419 52.6406C95.1419 52.6764 95.124 52.7182 95.1001 52.8018L95.0941 52.8077Z" fill="white"/>
<path d="M80.2883 34.5645C80.1928 33.5023 80.0973 32.4281 80.0018 31.3241C81.3386 31.2525 81.8637 30.3275 82.2636 29.2891C82.7469 28.0359 82.9021 26.7111 82.9797 25.3803C83.0573 24.1033 83.1169 22.8322 83.1647 21.5551C83.1766 21.203 83.296 21.1016 83.6481 21.1016C86.7035 21.1135 89.7649 21.1135 92.8203 21.1016C93.1843 21.1016 93.2738 21.2149 93.2738 21.567C93.2619 25.6728 93.2619 29.7785 93.2738 33.8842C93.2738 34.2542 93.1783 34.3855 92.7964 34.3735C91.9788 34.3497 91.1672 34.3437 90.3497 34.3735C89.9499 34.3855 89.8186 34.284 89.8186 33.8603C89.8365 30.9243 89.8305 27.9882 89.8305 25.0521V24.5329C88.7146 24.5329 87.6404 24.527 86.5722 24.5508C86.4946 24.5508 86.3693 24.7895 86.3514 24.9328C86.1724 26.3471 86.053 27.7674 85.8322 29.1757C85.6412 30.411 85.2832 31.6165 84.5909 32.6847C83.7077 34.0573 81.8697 34.8689 80.2764 34.5764L80.2883 34.5645Z" fill="white"/>
<path d="M96.9857 34.3373C96.9857 34.1524 96.9857 34.0032 96.9857 33.8599C96.9857 29.7841 96.9917 25.7082 96.9738 21.6323C96.9738 21.2265 97.0693 21.0892 97.487 21.1012C98.2867 21.131 99.0923 21.1071 99.892 21.1131C100.041 21.1131 100.184 21.125 100.387 21.137C100.387 21.4294 100.387 21.6979 100.387 21.9665C100.387 22.7542 100.405 23.5419 100.381 24.3297C100.369 24.6579 100.489 24.7295 100.799 24.7414C101.939 24.7772 103.073 24.825 104.207 24.9204C104.606 24.9563 105 25.1054 105.376 25.2546C107.531 26.114 108.241 27.9818 107.984 29.987C107.68 32.3561 106.092 33.8838 103.604 34.212C102.559 34.3493 101.491 34.3373 100.435 34.3612C99.4563 34.3851 98.4776 34.3672 97.499 34.3612C97.3378 34.3612 97.1827 34.3433 96.9798 34.3373H96.9857ZM100.399 27.391C100.399 28.7278 100.399 29.9571 100.411 31.1864C100.411 31.2461 100.554 31.3655 100.62 31.3595C101.444 31.3237 102.279 31.3595 103.085 31.2043C103.992 31.0313 104.427 30.345 104.415 29.4141C104.409 28.4831 103.962 27.8028 103.067 27.6297C102.213 27.4686 101.33 27.4627 100.399 27.3851V27.391Z" fill="white"/>
<path d="M101.832 43.0085H97.5229C97.5229 41.8687 97.5229 40.7647 97.5229 39.613C97.6482 39.607 97.7795 39.5891 97.9108 39.5891C101.647 39.5891 105.388 39.5891 109.124 39.5831C109.482 39.5831 109.595 39.6786 109.583 40.0426C109.56 40.8841 109.56 41.7255 109.583 42.5729C109.595 42.9429 109.464 43.0324 109.112 43.0264C108.014 43.0085 106.91 43.0205 105.812 43.0205H105.269C105.269 46.2967 105.269 49.5312 105.269 52.8014C104.105 52.8014 102.995 52.8014 101.832 52.8014C101.832 49.555 101.832 46.3206 101.832 43.0145V43.0085Z" fill="white"/>
</svg>
