<svg width="100" height="76" viewBox="0 0 100 76" fill="none" xmlns="http://www.w3.org/2000/svg">
<g clip-path="url(#clip0_798_120)">
<path fill-rule="evenodd" clip-rule="evenodd" d="M17.0948 22.6772C15.7597 24.007 15.8558 25.3798 15.8558 25.3798V38.807C15.8558 38.807 15.8772 39.0805 16.0267 39.1931C16.2136 39.3325 16.4806 39.2628 16.4806 39.2628L22.2003 37.7238C22.2003 37.7238 23.7543 37.386 24.7744 36.2009C25.9386 34.8496 25.8478 33.761 25.8478 33.761V20.2373C25.8478 19.8673 25.5487 19.6528 25.1802 19.7547L19.4873 21.2883C19.4873 21.2883 18.0347 21.7441 17.0948 22.6825M19.8558 24.4682L21.8478 23.9319V34.6137L19.8558 35.1499V24.4682Z" fill="white"/>
<path fill-rule="evenodd" clip-rule="evenodd" d="M40.6515 16.339C39.3164 17.6689 39.4126 19.0416 39.4126 19.0416V32.4688C39.4126 32.4688 39.4339 32.7423 39.5835 32.8549C39.7704 32.9944 40.0374 32.9246 40.0374 32.9246L45.757 31.3857C45.757 31.3857 47.3111 31.0478 48.3311 29.8628C49.4953 28.5115 49.4046 27.4283 49.4046 27.4283V13.8992C49.4046 13.5292 49.1055 13.3147 48.737 13.4166L43.0441 14.9502C43.0441 14.9502 41.5915 15.406 40.6462 16.3444M43.4072 18.13L45.3992 17.5938V28.2755L43.4072 28.8117V18.13Z" fill="white"/>
<path fill-rule="evenodd" clip-rule="evenodd" d="M9.48999 49.4135V45.7564C9.48999 45.3488 9.15888 45.1075 8.75835 45.2148L0.731642 47.3758C0.325768 47.4777 0 47.8959 0 48.2981V65.5433C0 65.9455 0.325768 66.1921 0.731642 66.0849L4.38451 65.1036V50.7862L9.48999 49.4135Z" fill="white"/>
<path fill-rule="evenodd" clip-rule="evenodd" d="M98.3872 39.8098C99.2577 39.5846 99.9626 38.6891 99.9626 37.815V1.22265C99.9626 0.348597 99.2577 -0.176909 98.3872 0.0536705L81.2603 4.65989C76.9933 5.80743 76.9826 8.5422 76.9826 13.009V19.0309C76.9826 21.3045 77.7196 22.5164 78.9105 23.3958C80.1015 24.2806 81.2336 24.8704 81.2336 24.8704C81.2336 24.8704 80.1121 26.2057 79.1028 27.3961C78.0935 28.5919 76.9826 30.6778 76.9826 32.6994V45.5636L86.4352 43.0219V27.4551L90.5047 26.3612V41.9279L98.3818 39.8098H98.3872ZM86.4352 19.7012V10.9552L90.5047 9.86133V18.6073L86.4352 19.7012Z" fill="white"/>
<path fill-rule="evenodd" clip-rule="evenodd" d="M13.1375 22.9935L9.79439 23.8944L6.85714 31.0853L3.94126 25.4709L0.667557 26.3503C0.299065 26.4469 0 26.8276 0 27.1922V43.0218C0 43.3918 0.299065 43.6116 0.667557 43.5151L4 42.6196V32.7047L6.85714 38.0187L9.80507 30.9727V41.0538L13.1375 40.1583C13.506 40.0618 13.8051 39.6864 13.8051 39.3164V23.4869C13.8051 23.1169 13.506 22.897 13.1375 22.9935Z" fill="white"/>
<path fill-rule="evenodd" clip-rule="evenodd" d="M21.773 47.9549V42.4532C21.773 42.0456 21.4472 41.8043 21.0414 41.9116L14.9479 43.5524C14.9479 43.5524 13.255 43.9224 12.1388 45.2147C10.8678 46.6894 10.9693 47.8691 10.9693 47.8691V63.334L19.781 60.9639C21.7623 60.4437 21.7677 59.1621 21.7677 57.0869V54.3039C21.7677 53.2475 21.4259 52.6844 20.8758 52.2769C20.3257 51.8694 19.797 51.5959 19.797 51.5959C19.797 51.5959 20.3204 50.9792 20.785 50.4215C21.2496 49.8692 21.7677 48.8987 21.7677 47.9602M17.3832 58.1111L15.3591 58.6581V54.5237L17.3832 53.9768V58.1057V58.1111ZM17.3832 50.3947L15.3591 50.9417V47.0272L17.3832 46.4803V50.3947Z" fill="white"/>
<path fill-rule="evenodd" clip-rule="evenodd" d="M48.2457 34.5866L42.291 36.19C42.291 36.19 40.5981 36.56 39.482 37.8523C38.2109 39.3269 38.3124 40.5066 38.3124 40.5066V55.2315C38.3124 55.639 38.6542 55.875 39.0547 55.7731L42.6969 54.7918V48.4214C42.6969 48.4214 43.6582 48.164 45.0894 47.7779C47.0174 47.2578 48.9666 45.0539 48.9666 42.7641V35.1389C48.9666 34.7314 48.6408 34.4847 48.235 34.592M44.5768 44.3299L42.6916 44.8394V39.6701L44.5768 39.1607V44.3299Z" fill="white"/>
<path fill-rule="evenodd" clip-rule="evenodd" d="M73.5808 6.72974L68.769 8.02206C68.769 8.02206 67.3218 8.49394 66.3765 9.42698C65.8104 9.9793 65.3458 10.6603 65.1375 12.1296C64.9292 13.5989 63.0601 26.7311 63.0601 26.7311L67.0601 25.6533L67.5407 22.318L70.2483 21.5887V24.7954L74.2483 23.7175V7.21235C74.2483 6.84235 73.9493 6.62786 73.5808 6.72438M68 19.0791L69.1322 11.1965L70.243 10.8963V18.4732L68 19.0791Z" fill="white"/>
<path fill-rule="evenodd" clip-rule="evenodd" d="M61.6609 23.8945V10.6013C61.6609 10.2313 61.3618 10.0168 60.9933 10.1187L56.3204 11.3735C56.3204 11.3735 54.8732 11.8454 53.9226 12.7784C53.3565 13.3307 52.8919 14.0117 52.6836 15.481C52.5447 16.473 51.6475 22.7523 51.0814 26.7472L50.3712 26.9403L49.3458 30.4258L62.3124 26.9349V23.7282L61.6609 23.9052V23.8945ZM55.0868 25.664L56.6836 14.5533L57.6609 14.2906V24.9723L55.0868 25.664Z" fill="white"/>
<path fill-rule="evenodd" clip-rule="evenodd" d="M61.2764 46.2979V31.8089C61.2764 31.4068 60.9506 31.1655 60.5501 31.2781L55.4553 32.6508C55.4553 32.6508 53.8798 33.171 52.8438 34.1844C52.2296 34.785 51.7223 35.525 51.4927 37.1283C51.3378 38.2062 50.3658 45.0538 49.7463 49.4027L48.972 49.6118L47.8558 53.4083L61.9866 49.6064V46.1102L61.2764 46.3033V46.2979ZM54.1095 48.2283L55.8505 36.1256L56.9132 35.8414V47.4776L54.1095 48.2337V48.2283Z" fill="white"/>
<path fill-rule="evenodd" clip-rule="evenodd" d="M26.3605 36.6032L30.3605 35.5253L32.4379 21.0739L33.5487 20.7736V34.662L37.5487 33.5842V17.0897C37.5487 16.7197 37.2497 16.5052 36.8812 16.6071L32.0748 17.8994C32.0748 17.8994 30.6275 18.3713 29.6769 19.3044C29.1108 19.8567 28.6462 20.5377 28.4379 22.007C28.2296 23.4762 26.3605 36.6085 26.3605 36.6085" fill="white"/>
<path fill-rule="evenodd" clip-rule="evenodd" d="M34.8304 38.2009L29.5914 39.6112C29.5914 39.6112 28.016 40.1367 26.98 41.1502C26.3658 41.7507 25.8585 42.4907 25.6288 44.0941C25.3992 45.6974 23.3645 59.9987 23.3645 59.9987L27.7223 58.8243L28.2456 55.1887L31.1989 54.3951V57.8913L35.5567 56.7169V38.7371C35.5567 38.335 35.231 38.0883 34.8304 38.2009ZM28.753 51.671L29.9866 43.0806L31.1989 42.7535V51.0115L28.753 51.671Z" fill="white"/>
<path fill-rule="evenodd" clip-rule="evenodd" d="M73.7196 27.7338L70.0614 28.7151V32.5224L67.8024 37.2412V29.3211L64.1442 30.3077C63.7383 30.415 63.4125 30.8279 63.4125 31.2354V49.2206L67.8024 48.0409V44.1961L70.0614 39.5148V47.435L74.4513 46.2552V28.2754C74.4513 27.8679 74.1255 27.6266 73.7196 27.7338Z" fill="white"/>
<path d="M3.87717 68.895C4.25634 68.9861 4.54473 69.1738 4.753 69.4687C4.95594 69.7636 5.05741 70.1444 5.05741 70.6216C5.05741 71.0989 4.95594 71.5225 4.753 71.93C4.55007 72.3322 4.25634 72.6754 3.87717 72.9596C3.498 73.2438 3.05474 73.4529 2.54206 73.587L1.3725 73.8926V75.6515L0.0320435 76V69.6189L2.54206 68.9647C3.05474 68.8306 3.50334 68.8092 3.87717 68.9003V68.895ZM3.38585 71.871C3.59413 71.6244 3.70094 71.3241 3.70094 70.9755C3.70094 70.627 3.59413 70.3696 3.38585 70.2302C3.17757 70.0907 2.86782 70.08 2.46729 70.1819L1.3725 70.4661V72.6807L2.46729 72.3965C2.86782 72.2893 3.17757 72.1177 3.38585 71.871Z" fill="white"/>
<path d="M10.4459 66.9001V73.2867L9.11616 73.6298V71.9353L7.89319 72.2571L6.86783 74.2197L5.45261 74.5897L6.66489 72.3482C6.27504 72.2732 5.97063 72.0855 5.76235 71.7852C5.55407 71.4849 5.44727 71.0827 5.44727 70.5841C5.44727 70.0907 5.54873 69.6403 5.75167 69.2327C5.95461 68.8252 6.24833 68.4767 6.62217 68.1871C6.996 67.8975 7.43926 67.6884 7.9466 67.5543L10.4459 66.9001ZM7.10281 69.2703C6.89987 69.5169 6.7984 69.8333 6.7984 70.2141C6.7984 70.5948 6.89453 70.8468 7.08679 70.9969C7.27904 71.1471 7.56209 71.1739 7.94126 71.0774L9.11616 70.7717V68.4552L7.9733 68.7555C7.59413 68.8574 7.3004 69.029 7.09747 69.2756L7.10281 69.2703Z" fill="white"/>
<path d="M15.9893 69.104C16.1816 69.3239 16.2724 69.6134 16.2724 69.9727C16.2724 70.3642 16.1549 70.7288 15.9253 71.0773C15.6956 71.4259 15.3805 71.7262 14.9853 71.9782C14.5901 72.2302 14.1576 72.4233 13.6876 72.5466C13.2871 72.6485 12.8919 72.6968 12.4967 72.6914C12.1015 72.686 11.7277 72.6163 11.3752 72.4823L11.7917 71.3186C12.0481 71.4205 12.3258 71.4795 12.6302 71.4849C12.9346 71.4902 13.239 71.4581 13.5274 71.383C13.9279 71.2811 14.2537 71.1149 14.5154 70.8897C14.7771 70.6644 14.9106 70.4071 14.9106 70.1229C14.9106 69.8869 14.8198 69.7314 14.6435 69.6563C14.462 69.5813 14.2216 69.5866 13.9119 69.6671L12.4967 70.0371V68.9217L13.8158 68.5785C14.0881 68.5088 14.2964 68.3908 14.4513 68.23C14.6008 68.0691 14.6809 67.8814 14.6809 67.6669C14.6809 67.4149 14.5741 67.254 14.3552 67.1682C14.1362 67.0878 13.8585 67.0878 13.5114 67.1789C13.255 67.2433 12.9933 67.3505 12.7263 67.5007C12.454 67.6455 12.1976 67.8278 11.9573 68.0423L11.5514 66.9966C12.1656 66.4926 12.8278 66.144 13.5381 65.9563C13.992 65.8384 14.4086 65.8008 14.7877 65.8491C15.1669 65.8974 15.4713 66.0314 15.701 66.2513C15.9253 66.4711 16.0427 66.766 16.0427 67.136C16.0427 67.4417 15.968 67.7313 15.8184 68.0047C15.6689 68.2782 15.466 68.5142 15.2043 68.7126C15.5407 68.7501 15.8078 68.8842 15.9947 69.104H15.9893Z" fill="white"/>
<path d="M21.2657 69.0934L18.5687 69.7958L18.0561 71.2973L16.6782 71.6566L19.2683 64.5944L20.5928 64.2458L23.1829 69.9567L21.773 70.3267L21.2603 69.0934H21.2657ZM20.8438 68.0799L19.9252 65.876L19.0013 68.5625L20.8438 68.0799Z" fill="white"/>
<path d="M29.2924 61.9775V68.3694L27.9413 68.7179V66.0958L25.3031 66.7822V69.4043L23.9573 69.7529V63.361L25.3084 63.0125V65.5327L27.9466 64.841V62.3207L29.2924 61.9722V61.9775Z" fill="white"/>
<path d="M31.8772 67.3774C31.3965 67.2219 31.0227 66.927 30.7503 66.4926C30.478 66.0636 30.3391 65.5328 30.3391 64.8947C30.3391 64.2565 30.478 63.656 30.7503 63.0822C31.0227 62.5084 31.4019 62.0151 31.8825 61.6076C32.3631 61.2 32.9025 60.9158 33.5007 60.7603C34.0027 60.6263 34.4619 60.6048 34.8678 60.696C35.2737 60.7871 35.6155 60.9748 35.8932 61.2697L35.028 62.3744C34.6328 61.9776 34.1469 61.8542 33.5647 62.0097C33.2069 62.1063 32.8865 62.2725 32.6035 62.5192C32.3204 62.7658 32.1015 63.0661 31.9412 63.42C31.781 63.7739 31.7063 64.1439 31.7009 64.5407C31.6956 64.9376 31.781 65.27 31.9359 65.5381C32.0908 65.8063 32.3151 65.9939 32.5928 66.0905C32.8758 66.1923 33.1963 66.1923 33.5541 66.1012C34.1362 65.951 34.6222 65.5703 35.0173 64.9644L35.8825 65.6132C35.6048 66.0583 35.263 66.4283 34.8518 66.7286C34.4406 67.0289 33.9866 67.2487 33.4793 67.3774C32.8865 67.5329 32.3525 67.5276 31.8718 67.372L31.8772 67.3774Z" fill="white"/>
<path d="M39.0174 63.2538L38.0881 63.4951V66.069L36.7477 66.4176V60.0203L38.0935 59.6718V62.2564L39.0548 62.0044L40.5875 59.0176L42.008 58.6476L40.1015 62.235L42.0561 65.0287L40.5287 65.4255L39.0174 63.2431V63.2538Z" fill="white"/>
<path d="M46.5154 62.503L43.8131 63.2055L43.2951 64.7123L41.9172 65.0716L44.518 57.9987L45.8478 57.6501L48.4379 63.3717L47.0227 63.7417L46.51 62.503H46.5154ZM46.0935 61.4896L45.1749 59.2803L44.251 61.9722L46.0988 61.4896H46.0935Z" fill="white"/>
<path d="M53.5754 55.6339L53.5648 62.0365L52.235 62.3851V60.6852L51.0067 61.0069L49.9706 62.9749L48.5501 63.3449L49.7677 61.0981C49.3725 61.023 49.0734 60.8354 48.8598 60.5351C48.6515 60.2348 48.5447 59.8326 48.5447 59.3339C48.5447 58.8352 48.6462 58.3901 48.8545 57.9772C49.0574 57.5697 49.3511 57.2158 49.7303 56.9262C50.1095 56.6367 50.5527 56.4222 51.0601 56.2881L53.5701 55.6339H53.5754ZM50.2163 58.0094C50.0134 58.2561 49.9119 58.5725 49.9119 58.9585C49.9119 59.3446 50.008 59.5913 50.2003 59.7414C50.3925 59.8916 50.6809 59.9184 51.0548 59.8219L52.235 59.5109V57.189L51.0921 57.4893C50.7076 57.5912 50.4192 57.7627 50.2163 58.0094Z" fill="white"/>
<path d="M58.5207 60.4225C58.0347 60.2616 57.6555 59.9667 57.3832 59.5377C57.1108 59.1087 56.972 58.5779 56.972 57.9505C56.972 57.3231 57.1108 56.7225 57.3885 56.1434C57.6662 55.5696 58.0454 55.0763 58.5314 54.6634C59.0173 54.2505 59.5621 53.9663 60.1655 53.8054C60.769 53.6445 61.3137 53.6499 61.7944 53.8054C62.275 53.9663 62.6542 54.2612 62.9319 54.6902C63.2096 55.1192 63.3485 55.6501 63.3431 56.2774C63.3378 56.9048 63.2043 57.5054 62.9212 58.0845C62.6435 58.6583 62.259 59.1516 61.7784 59.5645C61.2924 59.9774 60.753 60.2616 60.1442 60.4225C59.5354 60.5834 58.996 60.578 58.51 60.4225H58.5207ZM61.0894 58.6583C61.3671 58.4116 61.5861 58.1114 61.7463 57.7628C61.9065 57.4143 61.9866 57.0335 61.9866 56.6421C61.9866 56.2506 61.9065 55.9128 61.7517 55.6447C61.5968 55.3766 61.3778 55.1889 61.1001 55.087C60.8224 54.9851 60.5127 54.9798 60.1655 55.0709C59.8184 55.1621 59.5087 55.3283 59.231 55.575C58.9533 55.8216 58.7343 56.1219 58.5741 56.4705C58.4139 56.819 58.3338 57.1998 58.3338 57.5912C58.3338 57.9827 58.4139 58.3205 58.5687 58.5886C58.7236 58.8567 58.9426 59.0444 59.2203 59.1463C59.498 59.2482 59.8077 59.2535 60.1495 59.1624C60.4913 59.0712 60.8064 58.905 61.0841 58.6583H61.0894Z" fill="white"/>
<path d="M64.3952 52.808L69.1001 51.5801V52.7598L65.7303 53.6392V54.9583L67.3431 54.5347C68.0481 54.3524 68.5875 54.3738 68.9559 54.5991C69.3244 54.8243 69.506 55.2425 69.506 55.8538C69.506 56.492 69.2977 57.0443 68.8865 57.5054C68.4753 57.9666 67.8932 58.2937 67.1455 58.4921L64.3792 59.216L64.3899 52.8134L64.3952 52.808ZM67.0761 57.4143C67.4179 57.3231 67.6849 57.1837 67.8665 56.9853C68.0481 56.7869 68.1442 56.5456 68.1442 56.2614C68.1442 55.6983 67.7917 55.5107 67.0814 55.6983L65.7303 56.0522V57.7735L67.0761 57.4196V57.4143Z" fill="white"/>
<path d="M75.6048 49.8801L75.5888 56.2881L74.2537 56.6366L74.2644 51.4352L72.2617 51.9553L72.219 53.3013C72.1869 54.2182 72.1228 54.9743 72.016 55.5642C71.9092 56.154 71.733 56.6366 71.482 57.0013C71.2363 57.3659 70.8892 57.6072 70.4459 57.7252C70.2644 57.7734 70.0401 57.7949 69.7784 57.8002L69.8638 56.524C69.9386 56.524 70.0187 56.524 70.1041 56.4972C70.4246 56.4114 70.6542 56.1433 70.7824 55.6929C70.9106 55.2424 70.9907 54.5668 71.028 53.6659L71.1188 51.0437L75.6048 49.8748V49.8801Z" fill="white"/>
<path d="M81.004 53.4997L78.2911 54.2075L77.7677 55.7144L76.3845 56.0736L79.0013 48.9847L80.3365 48.6361L82.9319 54.3631L81.5167 54.7331L81.004 53.4944V53.4997ZM80.5821 52.4862L79.6636 50.2716L78.7343 52.9689L80.5875 52.4862H80.5821Z" fill="white"/>
<path d="M84.7797 53.5748C84.2991 53.4139 83.9199 53.119 83.6475 52.69C83.3752 52.261 83.2363 51.7248 83.2417 51.092C83.2417 50.4593 83.3805 49.8533 83.6582 49.2742C83.9359 48.7004 84.3151 48.2071 84.7957 47.7942C85.2764 47.3813 85.8211 47.1025 86.4192 46.9416C86.9266 46.8075 87.3805 46.7861 87.7917 46.8772C88.2029 46.9684 88.5447 47.1561 88.8224 47.451L87.9519 48.5557C87.5568 48.1588 87.0708 48.0355 86.4833 48.1857C86.1202 48.2822 85.7997 48.4538 85.5167 48.7004C85.2337 48.9471 85.0094 49.2474 84.8491 49.6013C84.6889 49.9552 84.6088 50.3306 84.6088 50.7274C84.6088 51.1242 84.6836 51.4567 84.8438 51.7301C85.004 52.0036 85.223 52.1859 85.506 52.2825C85.7891 52.3843 86.1095 52.3843 86.4726 52.2932C87.0548 52.143 87.5461 51.7623 87.9413 51.151L88.8064 51.8052C88.5287 52.2503 88.1816 52.6256 87.7704 52.9259C87.3592 53.2316 86.8999 53.4461 86.3925 53.5801C85.7997 53.7356 85.2604 53.7356 84.7797 53.5801V53.5748Z" fill="white"/>
<path d="M94.1095 46.2552L92.2403 46.7432L92.2243 51.95L90.8892 52.2985L90.9052 47.0917L89.0414 47.5797V46.3678L94.1148 45.0433V46.2552H94.1095Z" fill="white"/>
<path d="M99.4339 46.2821C99.8131 46.5287 100.005 46.9952 100 47.6816C100 48.4109 99.7864 49.0168 99.3645 49.5102C98.9426 50.0035 98.3498 50.3467 97.5861 50.5451L94.9479 51.2315L94.9693 44.8181L96.3151 44.4642V46.5716L97.7944 46.1855C98.5047 45.9979 99.0548 46.03 99.4339 46.2821ZM98.3391 48.9686C98.5367 48.7273 98.6382 48.427 98.6382 48.0677C98.6382 47.4028 98.2697 47.1668 97.522 47.3599L96.3044 47.6763V49.7836L97.5167 49.4673C97.8692 49.3761 98.1415 49.2099 98.3391 48.9686Z" fill="white"/>
</g>
<defs>
<clipPath id="clip0_798_120">
<rect width="100" height="76" fill="white"/>
</clipPath>
</defs>
</svg>
