<svg width="95" height="96" viewBox="0 0 95 96" fill="none" xmlns="http://www.w3.org/2000/svg">
<g clip-path="url(#clip0_798_154)">
<path d="M9.15793 71.707V81.1162H7.34355V75.322L5.10529 79.0999H4.05264L1.81438 75.3094V81.1162H0V71.707H1.68143L4.58444 76.5998L7.4765 71.707H9.15793Z" fill="white"/>
<path d="M15.0015 71.5205C18.0015 71.5205 19.5014 73.8593 19.5014 76.4133C19.5014 78.9672 18.0015 81.306 15.0015 81.306C12.0015 81.306 10.5015 78.9672 10.5015 76.4133C10.5015 73.8593 12.0015 71.5205 15.0015 71.5205ZM15.0015 73.3897C13.2356 73.3897 12.3519 74.7607 12.3519 76.4148C12.3519 78.0689 13.2356 79.44 15.0015 79.44C16.7674 79.44 17.6386 78.0689 17.6386 76.4148C17.6386 74.7607 16.7549 73.3897 15.0015 73.3897Z" fill="white"/>
<path d="M27.9602 71.707V81.1162H26.1458V73.5209H23.8231C23.5322 77.5265 23.1459 81.2237 20.7981 81.2363C20.5072 81.2363 20.1928 81.1968 19.8549 81.0624V79.2881C20.0129 79.3419 20.1944 79.3687 20.4352 79.3545C21.8633 79.247 21.9352 75.0121 22.1526 71.7054H27.9602V71.707Z" fill="white"/>
<path d="M33.8038 71.5205C36.8038 71.5205 38.3038 73.8593 38.3038 76.4133C38.3038 78.9672 36.8038 81.306 33.8038 81.306C30.8038 81.306 29.3038 78.9672 29.3038 76.4133C29.3038 73.8593 30.8038 71.5205 33.8038 71.5205ZM33.8038 73.3897C32.0379 73.3897 31.1542 74.7607 31.1542 76.4148C31.1542 78.0689 32.0379 79.44 33.8038 79.44C35.5697 79.44 36.4409 78.0689 36.4409 76.4148C36.4409 74.7607 35.5572 73.3897 33.8038 73.3897Z" fill="white"/>
<path d="M38.7042 83.1609V79.3435H39.6958C40.7844 77.1786 41.0394 74.3289 41.0394 71.7086H46.7985V79.3435H47.8746V83.1609H46.2776V81.1178H40.3011V83.1609H38.7042ZM41.6197 79.3435H44.9825V73.5224H42.7318C42.6113 75.6067 42.3439 77.7969 41.6181 79.3435H41.6197Z" fill="white"/>
<path d="M55.1087 71.707V73.4813H50.9591V75.4849H54.7458V77.2466H50.9591V79.3434H55.1806V81.1177H49.1431V71.7086H55.1071L55.1087 71.707Z" fill="white"/>
<path d="M55.7515 81.1177L58.2807 76.2914L55.922 71.707H57.9429L59.7572 75.4438H60.7739V71.707H62.5883V75.4438H63.605L65.4194 71.707H67.4402L65.069 76.2914L67.6091 81.1177H65.5883L63.5925 77.2734H62.5883V81.1177H60.7739V77.2734H59.7698L57.7739 81.1177H55.7531H55.7515Z" fill="white"/>
<path d="M75.9787 71.707V81.1162H74.1644V77.3256H70.3651V81.1162H68.5507V71.707H70.3651V75.4976H74.1644V71.707H75.9787Z" fill="white"/>
<path d="M77.7947 81.1178V71.7086H79.6091V74.8002H80.9886C83.0329 74.8128 84.6424 75.526 84.6424 77.9598C84.6424 80.3935 83.0329 81.1193 80.9886 81.1193H77.7947V81.1178ZM79.6091 79.3435H81.0731C82.0053 79.3435 82.7905 79.0604 82.7905 77.9582C82.7905 76.856 82.0037 76.5729 81.0731 76.5729H79.6091V79.3419V79.3435ZM85.3306 81.1178V71.7086H87.145V81.1178H85.3306Z" fill="white"/>
<path d="M94.9265 71.707V73.4813H90.7769V75.4849H94.5636V77.2466H90.7769V79.3434H94.9984V81.1177H88.9609V71.7086H94.9249L94.9265 71.707Z" fill="white"/>
<path d="M6.27369 93.9553V89.1021C6.27369 88.6719 6.28621 88.2007 6.3128 87.8117L2.02241 93.9553H0.165802V84.5461H2.13972V89.3994C2.13972 89.8295 2.12721 90.3007 2.10062 90.6897L6.391 84.5461H8.24761V93.9553H6.27369Z" fill="white"/>
<path d="M18.0922 84.5461V93.9553H16.1183V90.1647H11.9859V93.9553H10.0119V84.5461H11.9859V88.3367H16.1183V84.5461H18.0922Z" fill="white"/>
<path d="M25.9644 93.9553V89.1021C25.9644 88.6719 25.9769 88.2007 26.0035 87.8117L21.7131 93.9553H19.8565V84.5461H21.8304V89.3994C21.8304 89.8295 21.8179 90.3007 21.7913 90.6897L26.0817 84.5461H27.9383V93.9553H25.9644Z" fill="white"/>
<path d="M37.1651 96V93.9569H29.7026V84.5477H31.6766V92.143H35.7573V84.5477H37.7313V92.143H38.9028V96.0016H37.1651V96Z" fill="white"/>
<path d="M46.1807 93.9553V89.1021C46.1807 88.6719 46.1932 88.2007 46.2198 87.8117L41.9294 93.9553H40.0728V84.5461H42.0467V89.3994C42.0467 89.8295 42.0342 90.3007 42.0076 90.6897L46.298 84.5461H48.1546V93.9553H46.1807Z" fill="white"/>
<path d="M48.9711 93.9553L52.7359 84.5461H54.8678L58.6185 93.9553H56.5789L55.9079 92.1936H51.6958L51.0107 93.9553H48.9711ZM52.3151 90.5269H55.2901L53.9997 87.1522C53.934 86.964 53.8683 86.7759 53.8026 86.4137C53.7369 86.7759 53.6712 86.9656 53.5915 87.1522L52.3151 90.5269Z" fill="white"/>
<path d="M65.2004 84.5461V86.3615H62.3709V93.9569H60.4095V86.3615H57.58V84.5461H65.2004Z" fill="white"/>
<path d="M72.2561 93.9553V89.1021C72.2561 88.6719 72.2686 88.2007 72.2952 87.8117L68.0048 93.9553H66.1482V84.5461H68.1222V89.3994C68.1222 89.8295 68.1096 90.3007 68.0831 90.6897L72.3734 84.5461H74.23V93.9553H72.2561Z" fill="white"/>
<path d="M80.0204 84.5461C81.9818 84.5461 83.205 85.3131 83.205 86.9261C83.205 88.0283 82.6262 88.7004 81.8098 88.9835C82.7185 89.2523 83.5741 89.9386 83.5741 91.3223C83.5741 93.4603 81.5595 93.9569 79.9547 93.9569H75.9928V84.5477H80.0204V84.5461ZM80.0329 89.8959H77.9526V92.3154H79.9266C80.8087 92.3154 81.5986 92.1272 81.5986 91.1056C81.5986 90.0841 80.8228 89.8959 80.0329 89.8959ZM79.8484 86.1987H77.9667V88.3493H79.9547C80.7055 88.3493 81.2451 87.9998 81.2451 87.274C81.2451 86.5482 80.718 86.1987 79.8499 86.1987H79.8484Z" fill="white"/>
<path d="M84.8254 93.9553V84.5461H86.7993V87.6377H88.2993C90.5235 87.6504 92.2737 88.3636 92.2737 90.7973C92.2737 93.231 90.5235 93.9569 88.2993 93.9569H84.8238L84.8254 93.9553ZM86.7993 92.181H88.3916C89.4051 92.181 90.2607 91.8979 90.2607 90.7957C90.2607 89.6935 89.4051 89.4104 88.3916 89.4104H86.7993V92.1794V92.181ZM93.0245 93.9553V84.5461H94.9984V93.9553H93.0245Z" fill="white"/>
<path d="M28.6797 16.5063C33.1881 16.5063 36.8429 12.8112 36.8429 8.25315C36.8429 3.69506 33.1881 0 28.6797 0C24.1713 0 20.5166 3.69506 20.5166 8.25315C20.5166 12.8112 24.1713 16.5063 28.6797 16.5063Z" fill="white"/>
<path d="M48.2657 16.5063C52.774 16.5063 56.4288 12.8112 56.4288 8.25315C56.4288 3.69506 52.774 0 48.2657 0C43.7573 0 40.1025 3.69506 40.1025 8.25315C40.1025 12.8112 43.7573 16.5063 48.2657 16.5063Z" fill="white"/>
<path d="M28.6797 37.0419C33.1881 37.0419 36.8429 33.3469 36.8429 28.7888C36.8429 24.2307 33.1881 20.5356 28.6797 20.5356C24.1713 20.5356 20.5166 24.2307 20.5166 28.7888C20.5166 33.3469 24.1713 37.0419 28.6797 37.0419Z" fill="white"/>
<path d="M48.2657 37.0419C52.774 37.0419 56.4288 33.3469 56.4288 28.7888C56.4288 24.2307 52.774 20.5356 48.2657 20.5356C43.7573 20.5356 40.1025 24.2307 40.1025 28.7888C40.1025 33.3469 43.7573 37.0419 48.2657 37.0419Z" fill="white"/>
<path d="M28.6797 57.5792C33.1881 57.5792 36.8429 53.8841 36.8429 49.326C36.8429 44.7679 33.1881 41.0729 28.6797 41.0729C24.1713 41.0729 20.5166 44.7679 20.5166 49.326C20.5166 53.8841 24.1713 57.5792 28.6797 57.5792Z" fill="white"/>
<path d="M48.2657 57.5792C52.774 57.5792 56.4288 53.8841 56.4288 49.326C56.4288 44.7679 52.774 41.0729 48.2657 41.0729C43.7573 41.0729 40.1025 44.7679 40.1025 49.326C40.1025 53.8841 43.7573 57.5792 48.2657 57.5792Z" fill="white"/>
<path d="M68.0705 37.0419C72.5789 37.0419 76.2337 33.3469 76.2337 28.7888C76.2337 24.2307 72.5789 20.5356 68.0705 20.5356C63.5622 20.5356 59.9074 24.2307 59.9074 28.7888C59.9074 33.3469 63.5622 37.0419 68.0705 37.0419Z" fill="white"/>
<path d="M68.0705 57.5792C72.5789 57.5792 76.2337 53.8841 76.2337 49.326C76.2337 44.7679 72.5789 41.0729 68.0705 41.0729C63.5622 41.0729 59.9074 44.7679 59.9074 49.326C59.9074 53.8841 63.5622 57.5792 68.0705 57.5792Z" fill="white"/>
<path d="M76.2337 0H59.909V16.5047H76.2337V0Z" fill="white"/>
</g>
<defs>
<clipPath id="clip0_798_154">
<rect width="95" height="96" fill="white"/>
</clipPath>
</defs>
</svg>
